<mxfile host="app.diagrams.net" modified="2023-11-20T06:08:37.740Z" agent="Mozilla/5.0 (Windows NT 10.0; Win64; x64) AppleWebKit/537.36 (KHTML, like Gecko) Chrome/119.0.0.0 Safari/537.36 Edg/119.0.0.0" etag="uPV8d992uL3o0REDlhBk" version="22.1.3" type="github">
  <diagram name="Page-1" id="2YBvvXClWsGukQMizWep">
    <mxGraphModel dx="985" dy="626" grid="1" gridSize="10" guides="1" tooltips="1" connect="1" arrows="1" fold="1" page="1" pageScale="1" pageWidth="850" pageHeight="1100" math="0" shadow="0">
      <root>
        <mxCell id="0" />
        <mxCell id="1" parent="0" />
        <mxCell id="uCuYvjRTHrNX0vmEkMwE-13" value="" style="edgeStyle=orthogonalEdgeStyle;rounded=0;orthogonalLoop=1;jettySize=auto;html=1;" edge="1" parent="1" source="uCuYvjRTHrNX0vmEkMwE-11" target="uCuYvjRTHrNX0vmEkMwE-12">
          <mxGeometry relative="1" as="geometry" />
        </mxCell>
        <mxCell id="uCuYvjRTHrNX0vmEkMwE-11" value="Time line wise get mails with sent and received in thread format" style="rounded=1;whiteSpace=wrap;html=1;" vertex="1" parent="1">
          <mxGeometry x="350" y="40" width="120" height="60" as="geometry" />
        </mxCell>
        <mxCell id="uCuYvjRTHrNX0vmEkMwE-18" value="" style="edgeStyle=orthogonalEdgeStyle;rounded=0;orthogonalLoop=1;jettySize=auto;html=1;" edge="1" parent="1" source="uCuYvjRTHrNX0vmEkMwE-12" target="uCuYvjRTHrNX0vmEkMwE-14">
          <mxGeometry relative="1" as="geometry" />
        </mxCell>
        <mxCell id="uCuYvjRTHrNX0vmEkMwE-12" value="Get sent mail&#39;s conversation ids only" style="whiteSpace=wrap;html=1;rounded=1;" vertex="1" parent="1">
          <mxGeometry x="350" y="180" width="120" height="60" as="geometry" />
        </mxCell>
        <mxCell id="uCuYvjRTHrNX0vmEkMwE-19" style="edgeStyle=orthogonalEdgeStyle;rounded=0;orthogonalLoop=1;jettySize=auto;html=1;entryX=0.5;entryY=0;entryDx=0;entryDy=0;" edge="1" parent="1" source="uCuYvjRTHrNX0vmEkMwE-14" target="uCuYvjRTHrNX0vmEkMwE-16">
          <mxGeometry relative="1" as="geometry" />
        </mxCell>
        <mxCell id="uCuYvjRTHrNX0vmEkMwE-21" value="" style="edgeStyle=orthogonalEdgeStyle;rounded=0;orthogonalLoop=1;jettySize=auto;html=1;" edge="1" parent="1" source="uCuYvjRTHrNX0vmEkMwE-14" target="uCuYvjRTHrNX0vmEkMwE-20">
          <mxGeometry relative="1" as="geometry" />
        </mxCell>
        <mxCell id="uCuYvjRTHrNX0vmEkMwE-14" value="create a set of it" style="whiteSpace=wrap;html=1;rounded=1;" vertex="1" parent="1">
          <mxGeometry x="350" y="270" width="120" height="60" as="geometry" />
        </mxCell>
        <mxCell id="uCuYvjRTHrNX0vmEkMwE-28" style="edgeStyle=orthogonalEdgeStyle;rounded=0;orthogonalLoop=1;jettySize=auto;html=1;" edge="1" parent="1" source="uCuYvjRTHrNX0vmEkMwE-16">
          <mxGeometry relative="1" as="geometry">
            <mxPoint x="350" y="430" as="targetPoint" />
          </mxGeometry>
        </mxCell>
        <mxCell id="uCuYvjRTHrNX0vmEkMwE-16" value="get all mails with&amp;nbsp; same conversation id with same timeline" style="whiteSpace=wrap;html=1;rounded=1;" vertex="1" parent="1">
          <mxGeometry x="190" y="350" width="120" height="60" as="geometry" />
        </mxCell>
        <mxCell id="uCuYvjRTHrNX0vmEkMwE-29" style="edgeStyle=orthogonalEdgeStyle;rounded=0;orthogonalLoop=1;jettySize=auto;html=1;" edge="1" parent="1" source="uCuYvjRTHrNX0vmEkMwE-20">
          <mxGeometry relative="1" as="geometry">
            <mxPoint x="470" y="430" as="targetPoint" />
          </mxGeometry>
        </mxCell>
        <mxCell id="uCuYvjRTHrNX0vmEkMwE-20" value="also get mails where to is logged in user mail" style="whiteSpace=wrap;html=1;rounded=1;" vertex="1" parent="1">
          <mxGeometry x="530" y="350" width="120" height="60" as="geometry" />
        </mxCell>
        <mxCell id="uCuYvjRTHrNX0vmEkMwE-24" value="&lt;div style=&quot;text-align: left;&quot;&gt;&lt;span style=&quot;background-color: initial;&quot;&gt;apply business logic&lt;/span&gt;&lt;/div&gt;&lt;div style=&quot;text-align: left;&quot;&gt;&lt;ul&gt;&lt;li&gt;order by timeline&lt;/li&gt;&lt;li&gt;group by conversation id&lt;/li&gt;&lt;li&gt;from compare loggedin user mail(to check wether sent or received)&lt;/li&gt;&lt;/ul&gt;&lt;/div&gt;" style="rounded=1;whiteSpace=wrap;html=1;" vertex="1" parent="1">
          <mxGeometry x="210" y="430" width="400" height="110" as="geometry" />
        </mxCell>
      </root>
    </mxGraphModel>
  </diagram>
</mxfile>
